<svg width="20" height="21" viewBox="0 0 20 21" fill="none" xmlns="http://www.w3.org/2000/svg">
<path d="M5.8 0.201008H14.2C17.4 0.201008 20 2.81407 20 6.03015V14.4724C20 16.0184 19.3889 17.501 18.3012 18.5942C17.2135 19.6874 15.7383 20.3015 14.2 20.3015H5.8C2.6 20.3015 0 17.6884 0 14.4724V6.03015C0 4.48417 0.61107 3.0015 1.69878 1.90833C2.78649 0.815148 4.26174 0.201008 5.8 0.201008ZM5.6 2.21106C4.64522 2.21106 3.72955 2.59225 3.05442 3.27077C2.37928 3.9493 2 4.86957 2 5.82915V14.6734C2 16.6734 3.61 18.2915 5.6 18.2915H14.4C15.3548 18.2915 16.2705 17.9103 16.9456 17.2317C17.6207 16.5532 18 15.6329 18 14.6734V5.82915C18 3.82915 16.39 2.21106 14.4 2.21106H5.6ZM15.25 3.7186C15.5815 3.7186 15.8995 3.85095 16.1339 4.08655C16.3683 4.32215 16.5 4.64169 16.5 4.97488C16.5 5.30806 16.3683 5.6276 16.1339 5.8632C15.8995 6.0988 15.5815 6.23116 15.25 6.23116C14.9185 6.23116 14.6005 6.0988 14.3661 5.8632C14.1317 5.6276 14 5.30806 14 4.97488C14 4.64169 14.1317 4.32215 14.3661 4.08655C14.6005 3.85095 14.9185 3.7186 15.25 3.7186ZM10 5.22613C11.3261 5.22613 12.5979 5.75556 13.5355 6.69796C14.4732 7.64035 15 8.91851 15 10.2513C15 11.584 14.4732 12.8622 13.5355 13.8046C12.5979 14.747 11.3261 15.2764 10 15.2764C8.67392 15.2764 7.40215 14.747 6.46447 13.8046C5.52678 12.8622 5 11.584 5 10.2513C5 8.91851 5.52678 7.64035 6.46447 6.69796C7.40215 5.75556 8.67392 5.22613 10 5.22613ZM10 7.23618C9.20435 7.23618 8.44129 7.55384 7.87868 8.11928C7.31607 8.68471 7 9.45161 7 10.2513C7 11.0509 7.31607 11.8178 7.87868 12.3832C8.44129 12.9487 9.20435 13.2663 10 13.2663C10.7956 13.2663 11.5587 12.9487 12.1213 12.3832C12.6839 11.8178 13 11.0509 13 10.2513C13 9.45161 12.6839 8.68471 12.1213 8.11928C11.5587 7.55384 10.7956 7.23618 10 7.23618Z" fill="black"/>
</svg>
