<svg width="20" height="26" viewBox="0 0 20 26" fill="none" xmlns="http://www.w3.org/2000/svg">
<path d="M9.99998 14.6236C9.10098 14.6236 8.22216 14.3556 7.47466 13.8537C6.72717 13.3517 6.14457 12.6382 5.80053 11.8035C5.4565 10.9687 5.36648 10.0502 5.54187 9.16405C5.71726 8.27789 6.15017 7.4639 6.78586 6.82501C7.42156 6.18612 8.23148 5.75103 9.11321 5.57476C9.99494 5.3985 10.9089 5.48896 11.7394 5.83473C12.57 6.18049 13.2799 6.76602 13.7794 7.51727C14.2788 8.26852 14.5454 9.15176 14.5454 10.0553C14.544 11.2664 14.0646 12.4275 13.2125 13.2839C12.3604 14.1404 11.2051 14.6221 9.99998 14.6236ZM9.99998 7.3143C9.46058 7.3143 8.93329 7.47506 8.48479 7.77624C8.03629 8.07742 7.68673 8.5055 7.48031 9.00635C7.27389 9.5072 7.21988 10.0583 7.32511 10.59C7.43035 11.1217 7.69009 11.6101 8.07151 11.9934C8.45292 12.3768 8.93888 12.6378 9.46792 12.7436C9.99696 12.8493 10.5453 12.7951 11.0437 12.5876C11.542 12.3802 11.9679 12.0288 12.2676 11.5781C12.5673 11.1273 12.7273 10.5974 12.7273 10.0553C12.7265 9.32855 12.439 8.63179 11.9277 8.11792C11.4163 7.60404 10.7231 7.31503 9.99998 7.3143Z" fill="black"/>
<path d="M10 25.5875L2.33092 16.4975C2.22435 16.361 2.1189 16.2236 2.01455 16.0854C0.704538 14.3511 -0.00316471 12.2327 1.0639e-05 10.0553C1.0639e-05 7.38978 1.05358 4.83346 2.92894 2.94868C4.8043 1.06389 7.34784 0.00502777 10 0.00502777C12.6522 0.00502777 15.1957 1.06389 17.0711 2.94868C18.9464 4.83346 20 7.38978 20 10.0553C20.0032 12.2317 19.2958 14.3491 17.9864 16.0827L17.9854 16.0854C17.9854 16.0854 17.7127 16.4454 17.6718 16.4938L10 25.5875ZM3.46546 14.9845C3.46728 14.9845 3.67819 15.2659 3.72637 15.3262L10 22.7624L16.2818 15.3161C16.3218 15.2659 16.5345 14.9826 16.5354 14.9817C17.6056 13.5647 18.1839 11.8342 18.1818 10.0553C18.1818 7.87441 17.3198 5.78288 15.7854 4.24078C14.251 2.69869 12.17 1.83234 10 1.83234C7.83005 1.83234 5.74897 2.69869 4.21459 4.24078C2.6802 5.78288 1.81819 7.87441 1.81819 10.0553C1.81628 11.8353 2.39435 13.5668 3.46546 14.9845Z" fill="black"/>
</svg>
