<svg width="20" height="24" viewBox="0 0 20 24" fill="none" xmlns="http://www.w3.org/2000/svg">
<path d="M15.8673 3.98185C14.9954 2.98147 14.5149 1.69674 14.5153 0.366837H10.574V16.2626C10.5436 17.1228 10.1822 17.9376 9.56603 18.5354C8.94982 19.1332 8.12685 19.4673 7.27041 19.4674C5.45918 19.4674 3.95408 17.9804 3.95408 16.1345C3.95408 13.9295 6.07143 12.2759 8.25255 12.9553V8.90442C3.85204 8.31474 0 11.7503 0 16.1345C0 20.4032 3.52041 23.4414 7.25765 23.4414C11.2628 23.4414 14.5153 20.1725 14.5153 16.1345V8.07118C16.1135 9.22471 18.0324 9.84362 20 9.84022V5.87909C20 5.87909 17.602 5.99446 15.8673 3.98185Z" fill="black"/>
</svg>
