<svg width="19" height="19" viewBox="0 0 19 19" fill="none" xmlns="http://www.w3.org/2000/svg">
<path d="M15.9194 3.46857C15.1036 2.64035 14.1318 1.98368 13.0608 1.53685C11.9898 1.09002 10.841 0.861991 9.68145 0.866051C4.82278 0.866051 0.862876 4.84585 0.862876 9.72894C0.862876 11.294 1.27221 12.8144 2.0375 14.1559L0.791687 18.7528L5.46348 17.5186C6.75379 18.2251 8.20427 18.6008 9.68145 18.6008C14.5401 18.6008 18.5 14.621 18.5 9.73788C18.5 7.36788 17.5835 5.14098 15.9194 3.46857ZM9.68145 17.0983C8.36445 17.0983 7.07414 16.7405 5.94401 16.0698L5.67705 15.9088L2.90067 16.6422L3.63926 13.9234L3.46129 13.6461C2.72959 12.4718 2.34107 11.1145 2.34005 9.72894C2.34005 5.66864 5.63256 2.35959 9.67255 2.35959C11.6303 2.35959 13.4723 3.12872 14.8516 4.52389C15.5345 5.20713 16.0758 6.01982 16.4439 6.91484C16.812 7.80986 16.9997 8.76941 16.9961 9.73788C17.0139 13.7982 13.7214 17.0983 9.68145 17.0983ZM13.7036 11.5892C13.4812 11.4818 12.3955 10.9452 12.1998 10.8647C11.9951 10.7932 11.8527 10.7574 11.7014 10.9721C11.5502 11.1956 11.1319 11.6965 11.0073 11.8396C10.8828 11.9916 10.7493 12.0095 10.5268 11.8932C10.3044 11.7859 9.59246 11.5444 8.75599 10.7932C8.09749 10.2029 7.66145 9.47852 7.52797 9.25494C7.40339 9.03135 7.51017 8.91509 7.62586 8.79882C7.72374 8.70045 7.84832 8.53947 7.95511 8.41426C8.06189 8.28905 8.10639 8.19067 8.17757 8.04758C8.24876 7.89554 8.21317 7.77034 8.15978 7.66302C8.10638 7.5557 7.66145 6.4646 7.48348 6.01744C7.30551 5.58815 7.11863 5.64181 6.98515 5.63287H6.55802C6.40674 5.63287 6.17538 5.68653 5.97071 5.91011C5.77494 6.1337 5.20542 6.6703 5.20542 7.76139C5.20542 8.85249 5.9974 9.9078 6.10419 10.0509C6.21097 10.2029 7.66145 12.4388 9.86832 13.3957C10.3933 13.6282 10.8027 13.7624 11.123 13.8608C11.6481 14.0307 12.1286 14.0039 12.5112 13.9502C12.9384 13.8876 13.8193 13.4136 13.9973 12.8949C14.1842 12.3762 14.1842 11.938 14.1219 11.8396C14.0596 11.7412 13.9261 11.6965 13.7036 11.5892Z" fill="white"/>
</svg>
